<svg id="Capa_1" enable-background="new 0 0 512 512" height="512" viewBox="0 0 512 512" width="512" xmlns="http://www.w3.org/2000/svg"><g><path d="m465.039 232.696-48.448-107.358c-17.212-38.141-55.372-62.786-97.217-62.786h-22.249c-14.018 0-26.422 7.011-33.915 17.703-7.492-10.692-19.897-17.703-33.915-17.703h-22.248c-41.845 0-80.005 24.645-97.217 62.786l-48.446 107.358c-14.529 32.193-14.695 69.195-.454 101.518 1.668 3.82 6.172 5.483 9.862 3.83 3.781-1.666 5.495-6.081 3.83-9.862-3.432-7.789-5.906-15.889-7.437-24.125l12.607 1.363c5.254.578 10.53-1.267 14.281-5.074l14.125-14.268 5.355 15.683c2.576 7.625 10.114 12.463 18.02 11.752l26.673-2.3c4.116-.356 7.166-3.98 6.811-8.097s-3.983-7.156-8.096-6.811l-26.672 2.3c-1.14.102-2.203-.592-2.575-1.679l-17.265-50.562c-.263-.77-.592-1.509-.957-2.229l10.378-35.952c1.146-3.97-1.143-8.116-5.113-9.263-3.972-1.144-8.117 1.144-9.262 5.113l-8.481 29.382-15.298-9.395 23.432-51.925 26.61 1.401c1.189.063 2.173.964 2.339 2.145l3.875 27.602c1.012 7.217 6.48 13.101 13.606 14.638l25.011 5.395c.876.189 1.755.285 2.632.337l12.004 25.008c1.794 3.764 6.339 5.279 9.982 3.508 3.725-1.788 5.295-6.258 3.507-9.982l-11.585-24.136c.437-.476.852-.977 1.239-1.506l10.075-13.797c.511-.699 1.369-1.086 2.225-1.015l11.989 1.021c4.117.355 7.738-2.703 8.089-6.819.35-4.118-2.703-7.738-6.82-8.089l-11.99-1.021c-6.033-.524-12.004 2.207-15.577 7.099l-10.075 13.797c-.581.796-1.579 1.174-2.54.968l-25.01-5.395c-1.018-.22-1.8-1.06-1.944-2.092l-3.875-27.603c-1.159-8.256-8.043-14.567-16.369-15.005l-20.792-1.094 11.718-25.966c4.081-9.043 9.537-17.197 16.046-24.274l34.617 24.645-5.202 30.725c-.69 4.074 2.054 7.935 6.128 8.625 3.98.704 7.954-2.031 8.625-6.127l5.32-31.418 17.019-7.681c6.242-2.817 10.275-9.063 10.275-15.911v-14.13c0-4.132-3.349-7.481-7.481-7.481s-7.481 3.349-7.481 7.481v14.13c0 .979-.576 1.871-1.468 2.274l-16.736 7.553-32.357-23.036c15.801-12.28 35.506-19.353 56.276-19.353h22.248c14.576 0 26.434 11.858 26.434 26.434v16.605c0 4.132 3.349 7.481 7.481 7.481s7.481-3.349 7.481-7.481v-16.605c0-14.576 11.858-26.434 26.434-26.434h22.249c35.975 0 68.782 21.188 83.579 53.979l48.448 107.358c2.84 6.293 5.052 12.795 6.644 19.413l-13.832 16.665c-.428.515-1.055.841-1.724.892l-32.266 2.523c-4.12.322-7.198 3.923-6.875 8.042.306 3.921 3.583 6.898 7.45 6.898.196 0 .393-.007.591-.022l32.264-2.523c4.677-.364 9.078-2.645 12.074-6.255l5.212-6.279c.89 16.975-2.151 34.117-9.138 49.978l-28.683 65.108-16.905-27.792-4.833-33.83c-.585-4.09-4.381-6.924-8.464-6.348-4.09.584-6.932 4.374-6.348 8.464l4 27.999-29.86 4.496c-4.085.615-6.899 4.425-6.284 8.511s4.423 6.906 8.512 6.284l32.282-4.86 20.46 33.638c-7.086 14.233-17.263 26.891-29.676 36.82-3.227 2.58-3.75 7.288-1.169 10.515 1.478 1.848 3.652 2.808 5.847 2.808 1.639 0 3.289-.536 4.668-1.639 15.614-12.488 28.13-28.768 36.196-47.077l33.95-77.063c14.233-32.327 14.068-69.328-.461-101.523zm-369.807 17.183c.494.303.869.772 1.056 1.32l6.51 19.066-19.358 19.555c-.536.543-1.28.811-2.04.724l-15.961-1.725c-.751-17.006 2.443-34.147 9.583-49.968l.489-1.084z"/><path d="m360.179 462.057c-13.574 5.739-27.94 8.65-42.698 8.65-25.799 0-46.788-20.989-46.788-46.789v-243.131l34.521-13.337c2.883-1.114 4.785-3.887 4.785-6.979v-33.067c0-.719.31-1.403.852-1.876l23.526-20.585c3.109-2.721 3.424-7.447.704-10.556-2.721-3.11-7.447-3.424-10.557-.704l-23.525 20.584c-3.789 3.315-5.962 8.103-5.962 13.138v27.938l-24.343 9.405v-9.134c0-4.132-3.35-7.481-7.481-7.481-4.132 0-7.481 3.349-7.481 7.481v118.914l-46.826 10.272c-.575.128-1.178.046-1.697-.229l-33.431-17.623c-3.655-1.925-8.18-.525-10.107 3.13s-.526 8.18 3.129 10.106l33.433 17.624c3.644 1.921 7.873 2.487 11.879 1.607l43.62-9.569v134.073c0 25.799-20.989 46.789-46.788 46.789-43.454 0-82.851-25.695-100.371-65.461l-11.503-26.109 15.432-2.532c1.048-.172 2.09.339 2.596 1.271l13.451 24.81c1.979 3.668 6.58 4.961 10.142 3.012 3.632-1.97 4.98-6.511 3.011-10.142l-13.451-24.811c-3.541-6.529-10.843-10.11-18.172-8.905l-19.239 3.157-2.972-6.746c-1.665-3.781-6.083-5.498-9.862-3.83-3.782 1.666-5.496 6.081-3.83 9.862l20.703 46.995c19.909 45.192 64.682 74.392 114.063 74.392 23.396 0 43.795-13.08 54.269-32.311 10.474 19.231 30.873 32.311 54.27 32.311 16.771 0 33.097-3.308 48.525-9.831 3.805-1.609 5.586-5.999 3.977-9.804-1.609-3.806-5.999-5.587-9.804-3.979z"/><path d="m377.846 254.297c0-4.132-3.349-7.481-7.481-7.481h-39.532c-.118 0-.228-.053-.302-.146l-29.959-37.877c-2.564-3.242-7.268-3.789-10.509-1.227-3.24 2.564-3.79 7.269-1.226 10.509l12.988 16.421-15.525 13.921c-3.076 2.759-3.333 7.489-.575 10.565 1.478 1.647 3.52 2.486 5.572 2.486 1.779 0 3.564-.63 4.992-1.911l14.835-13.304 7.67 9.697c2.928 3.704 7.316 5.828 12.038 5.828h39.532c4.133 0 7.482-3.349 7.482-7.481z"/><path d="m353.811 330.381c5.854-3.002 9.49-8.954 9.49-15.533v-23.643c0-4.132-3.349-7.481-7.481-7.481s-7.481 3.349-7.481 7.481v23.643c0 .94-.52 1.79-1.356 2.219l-31.981 16.4-22.733-30.14c-2.488-3.297-7.179-3.957-10.478-1.467-3.299 2.488-3.956 7.178-1.468 10.478l24.296 32.213c-.014.222-.046.44-.046.665v37.822h-20.012c-4.132 0-7.481 3.349-7.481 7.481s3.349 7.481 7.481 7.481h23.571l18.249 26.397c1.452 2.101 3.787 3.228 6.161 3.228 1.467 0 2.949-.431 4.248-1.329 3.399-2.35 4.249-7.009 1.9-10.407l-19.153-27.704v-40.227z"/><path d="m387.053 213.172c.877 0 1.77-.156 2.64-.484 3.866-1.458 5.817-5.775 4.358-9.641l-23.781-63.015c-.026-.068-.053-.136-.081-.204-1.383-3.363-4.623-5.533-8.258-5.533-.003 0-.006 0-.009 0-3.638.004-6.879 2.182-8.257 5.55-.023.056-.045.112-.067.169l-23.998 63.013c-1.47 3.86.467 8.183 4.328 9.653 3.86 1.472 8.183-.468 9.654-4.329l4.142-10.874h28.232l4.096 10.854c1.131 2.995 3.978 4.841 7.001 4.841zm-33.63-30.657 8.482-22.271 8.405 22.271z"/><path d="m501.139 483.473-14.009-8.088 14.009-8.088c3.578-2.066 4.804-6.641 2.738-10.219-2.067-3.579-6.642-4.802-10.219-2.738l-14.008 8.088v-16.175c0-4.132-3.349-7.481-7.481-7.481s-7.481 3.349-7.481 7.481v16.175l-14.009-8.088c-3.578-2.065-8.154-.842-10.219 2.738-2.066 3.578-.84 8.153 2.738 10.219l14.009 8.088-14.009 8.088c-3.578 2.066-4.804 6.642-2.738 10.219 1.386 2.4 3.9 3.742 6.486 3.742 1.269 0 2.556-.323 3.734-1.003l14.009-8.088v16.176c0 4.132 3.349 7.481 7.481 7.481s7.481-3.349 7.481-7.481v-16.176l14.008 8.088c1.178.68 2.465 1.003 3.734 1.003 2.585 0 5.1-1.341 6.486-3.742 2.064-3.577.838-8.153-2.74-10.219z"/><path d="m60.583 132.238 7.763 9.038c2.693 3.137 7.417 3.494 10.55.801 3.134-2.692 3.493-7.416.801-10.55l-9.625-11.205c5.099-6.943 8.56-12.467 8.772-12.807 2.187-3.504 1.12-8.117-2.384-10.305s-8.119-1.122-10.308 2.382c-.041.066-2.435 3.883-6.109 9.053l-13.553-15.777c1.618-1.11 3.084-2.209 4.44-3.352 8.451-7.122 10.81-17.074 6.009-25.354-5.18-8.935-16.889-12.819-27.234-9.034-1.671.612-3.103 1.322-4.379 2.173-4.569 3.046-7.653 8.044-8.461 13.712-.792 5.554.727 11.087 4.219 15.24l2.503 2.915c-8.949 5.109-15.018 14.001-16.238 23.788-1.153 9.25 2.06 18.046 9.048 24.768 4.94 4.752 11.057 7.238 17.764 7.238.456 0 .915-.012 1.376-.034 10.363-.52 19.531-6.702 25.046-12.69zm-28.906-59.112c.328-3.219 3.373-4.501 6.204-4.491 2.752 0 5.124 1.324 6.114 3.032 1.329 2.291-.738 4.749-2.707 6.407-1.274 1.074-2.815 2.179-4.622 3.358l-4.181-4.869c-.706-.838-1-2.091-.808-3.437zm18.49 48.311c-4.134 4.858-10.313 8.293-15.377 8.546-3.109.157-5.73-.841-8.02-3.043-4.491-4.32-4.966-8.983-4.573-12.134.64-5.139 3.938-9.869 8.822-12.653.86-.49 1.692-.964 2.499-1.425l17.214 20.04c-.188.224-.376.447-.565.669z"/><path d="m160.437 407.684c1.308 2.414 3.832 3.917 6.577 3.917h42.637c4.132 0 7.481-3.349 7.481-7.481s-3.349-7.481-7.481-7.481h-28.833l34.108-52.347c1.499-2.3 1.618-5.236.309-7.649-1.308-2.414-3.832-3.917-6.577-3.917h-40.333c-4.132 0-7.481 3.349-7.481 7.481s3.349 7.481 7.481 7.481h26.529l-34.108 52.347c-1.498 2.3-1.617 5.236-.309 7.649z"/><path d="m451.915 102.101c-4.24 0-7.677 3.437-7.677 7.676 0 4.24 3.437 7.677 7.677 7.677s7.677-3.437 7.677-7.677c-.001-4.239-3.438-7.676-7.677-7.676z"/><path d="m426.715 40.162c4.132 0 7.481-3.349 7.481-7.481 0-.832.057-1.666.172-2.482 1.22-8.746 8.732-15.236 17.553-15.236.121 0 .242.001.363.003 9.236.186 16.846 7.548 17.324 16.762.255 4.918-1.466 9.587-4.845 13.147-3.382 3.562-7.945 5.524-12.848 5.524-4.132 0-7.481 3.349-7.481 7.481v26.35c0 4.132 3.349 7.481 7.481 7.481s7.481-3.349 7.481-7.481v-19.747c6.142-1.455 11.819-4.674 16.218-9.308 6.232-6.565 9.406-15.167 8.936-24.224-.883-17.009-14.923-30.602-31.965-30.945-.223-.004-.445-.006-.668-.006-16.262 0-30.115 11.985-32.367 28.129-.209 1.498-.316 3.029-.316 4.552 0 4.132 3.35 7.481 7.481 7.481z"/><path d="m107.731 14.962h54.788c4.132 0 7.481-3.349 7.481-7.481s-3.35-7.481-7.481-7.481h-54.788c-4.132 0-7.481 3.349-7.481 7.481s3.349 7.481 7.481 7.481z"/><path d="m107.731 45.901h54.788c4.132 0 7.481-3.349 7.481-7.481s-3.349-7.481-7.481-7.481h-54.788c-4.132 0-7.481 3.349-7.481 7.481s3.349 7.481 7.481 7.481z"/><path d="m102.17 468.323h-19.587v-19.587c0-4.132-3.349-7.481-7.481-7.481s-7.481 3.349-7.481 7.481v19.587h-20.238c-4.132 0-7.481 3.349-7.481 7.481s3.349 7.481 7.481 7.481h20.238v20.238c0 4.132 3.349 7.481 7.481 7.481s7.481-3.349 7.481-7.481v-20.238h19.587c4.132 0 7.481-3.349 7.481-7.481.001-4.132-3.349-7.481-7.481-7.481z"/></g></svg>