<svg id="Capa_1" enable-background="new 0 0 512.029 512.029" height="512" viewBox="0 0 512.029 512.029" width="512" xmlns="http://www.w3.org/2000/svg"><g><path d="m187.539 291.516-82.342 124.147c-.501.751-.946 1.789-1.129 2.807l-6.501 35.773c0 .001-.001.003-.001.004l-5.165 28.419-1.846 10.158c-2.555 14.045 12.935 24.321 24.885 16.506l63.244-41.373c.884-.589 1.622-1.347 2.145-2.131l60.917-91.846 81.625 124.172c6.241 9.495 19.137 12.314 28.819 5.95l18.559-12.243c3.458-2.281 4.411-6.933 2.131-10.39-2.282-3.458-6.935-4.411-10.391-2.131l-18.549 12.236c-2.641 1.738-6.283 1.004-8.034-1.661l-85.144-129.526 54.359-81.958 6.579 10.007-10.407 6.841c-3.461 2.275-4.422 6.925-2.147 10.387 2.277 3.463 6.927 4.423 10.388 2.147l10.406-6.84 17.486 26.6c-3.26 2.33-4.129 6.834-1.909 10.212 2.153 3.274 6.563 4.44 10.128 2.292l17.498 26.618c-3.26 2.33-4.129 6.834-1.909 10.212 2.149 3.268 6.555 4.443 10.128 2.292l17.489 26.606-10.407 6.841c-3.461 2.275-4.422 6.925-2.147 10.387 2.277 3.463 6.927 4.423 10.388 2.147l10.406-6.84 17.504 26.629-22.859 15.08c-3.458 2.281-4.411 6.933-2.131 10.39 2.282 3.458 6.935 4.412 10.391 2.13l47.606-31.405c9.582-6.299 12.257-19.222 5.956-28.81-3.777-5.746-117.006-177.999-118.099-179.662 58.902-88.807 51.277-77.312 83.171-125.399 10.804-16.289 6.341-38.331-9.947-49.135l-16.548-10.975c-16.276-10.795-38.339-6.331-49.135 9.947-41.309 62.282-14.527 21.902-61.749 93.098-.659-1.002-91.932-139.854-92.591-140.857-6.3-9.584-19.226-12.258-28.811-5.957-2.686 1.765-92.735 61.176-95.418 62.946-9.582 6.297-12.258 19.226-5.958 28.81zm16.35-194.397 17.107-11.246 17.478 26.588-17.107 11.246zm-25.716-39.122 17.107-11.246 17.477 26.588-17.107 11.246zm68.541 66.999 17.477 26.587-17.107 11.245-17.478-26.587zm63.771 8.29 19.065 12.645-74.935 112.98c-2.29 3.452-1.348 8.106 2.104 10.396 3.451 2.29 8.105 1.347 10.396-2.104l74.935-112.98 19.065 12.645c-7.721 11.641-181.815 274.125-188.642 284.418l-19.065-12.645 94.356-142.263c2.29-3.452 1.348-8.106-2.104-10.396-3.452-2.291-8.106-1.348-10.396 2.104l-94.356 142.263-19.065-12.645c4.112-6.199 179.971-271.345 188.642-284.418zm-203.256 363.49c-.93.615-2.11-.166-1.916-1.27l4.975-27.375 20.224 13.414zm164.502-332.198-11.801 17.794-4.607-7.008zm-127.557 308.03-30.967-20.539 3.583-19.717 44.154 29.285zm222.884-164.534-17.107 11.246-17.478-26.588 17.108-11.245zm25.717 39.122-17.107 11.246-17.478-26.588 17.108-11.245zm-8.869 23.78 17.108-11.246 17.477 26.587-17.108 11.246zm55.449 57.654-12.254 8.056-17.478-26.588 17.107-11.246 14.29 21.739c1.728 2.628 1.045 6.254-1.665 8.039zm-98.014-159.679-17.107 11.245-10.098-15.361 12.305-18.552zm28.065-114.584c-33.33-22.106-31.826-21.108-50.631-33.581l10.992-16.572 50.63 33.581zm-13.908-88.947c6.213-9.367 18.975-11.951 28.344-5.738l16.548 10.975c9.396 6.232 11.97 18.947 5.738 28.344l-17.439 26.294-50.63-33.581zm-168.458-31.203-17.107 11.246-14.091-21.437 12.247-8.079c.005-.003.01-.005.015-.008 2.588-1.691 6.241-1.038 8.02 1.67zm-114.361 44.67 70.642-46.601 14.078 21.416-10.407 6.841c-3.461 2.275-4.422 6.925-2.147 10.387 2.277 3.463 6.926 4.423 10.388 2.147l10.406-6.84 17.485 26.6c-3.26 2.33-4.129 6.834-1.909 10.212 2.153 3.274 6.563 4.44 10.128 2.292l17.498 26.619c-3.26 2.33-4.129 6.834-1.909 10.212 2.153 3.274 6.561 4.44 10.129 2.292l17.489 26.605-10.407 6.841c-3.461 2.275-4.422 6.925-2.147 10.387 2.277 3.463 6.926 4.423 10.388 2.147l10.406-6.84 8.125 12.361-54.359 81.958-125.549-190.993c-1.735-2.638-1.015-6.276 1.672-8.043z"/></g></svg>