<svg id="Capa_1" enable-background="new 0 0 512.01 512.01" height="512" viewBox="0 0 512.01 512.01" width="512" xmlns="http://www.w3.org/2000/svg"><path d="m488.741 181.905c.048-.067.087-.138.133-.206l18.144-25.247c4.475-6.205 6.012-13.93 4.327-21.753-1.625-7.54-6.076-14.256-12.536-18.913l-16.391-11.812c-6.451-4.646-14.222-6.735-21.881-5.88-7.945.886-14.783 4.798-19.253 11.015l-13.852 19.266c-42.088-54.258-107.114-86.369-176.024-86.369-59.493 0-115.424 23.192-157.491 65.303-40.292 40.336-63.245 93.41-65.107 150.148h-2.973c-14.247 0-25.837 11.611-25.837 25.884v48.41c0 14.272 11.59 25.884 25.836 25.884h237.299l-18.276 51.453c-.03.083-.061.165-.088.248l-16.013 45.081c-1.603 4.518.492 9.812 4.078 12.734 3.987 3.248 10.375 4.036 14.602.719l37.994-29.804c.001-.001.002-.001.003-.002l43.139-33.84c.026-.021.048-.046.074-.067.196-.158.382-.331.564-.51.058-.058.121-.11.177-.17.227-.24.443-.494.641-.77.001-.001.002-.003.003-.004l.003-.003 32.382-45.064h114.56c14.261 0 25.864-11.611 25.864-25.884v-48.41c0-14.272-11.603-25.884-25.864-25.884h-2.975c-.518-15.633-2.674-31.114-6.39-46.173l21.003-29.227c.04-.054.086-.099.125-.153zm-57.965-32.487 14.625 10.528-149.959 208.6-14.624-10.535 2.4-3.339c.108-.141.213-.283.311-.432zm-171.869 193.217v-11.58c0-4.142-3.358-7.5-7.5-7.5s-7.5 3.358-7.5 7.5v11.58h-24.26v-27.374c0-4.142-3.358-7.5-7.5-7.5s-7.5 3.358-7.5 7.5v27.374h-24.26v-11.58c0-4.142-3.358-7.5-7.5-7.5s-7.5 3.358-7.5 7.5v11.58h-24.26v-27.374c0-4.142-3.358-7.5-7.5-7.5s-7.5 3.358-7.5 7.5v27.374h-24.26v-11.58c0-4.142-3.358-7.5-7.5-7.5s-7.5 3.358-7.5 7.5v11.58h-24.26v-27.374c0-4.142-3.358-7.5-7.5-7.5s-7.5 3.358-7.5 7.5v27.374h-21.771c-5.975 0-10.836-4.882-10.836-10.884v-48.41c0-6.001 4.861-10.884 10.836-10.884h10.351c4.142 0 7.5-3.358 7.5-7.5 0-16 1.818-31.581 5.252-46.553l14.608 3.911c.65.174 1.302.257 1.944.257 3.312 0 6.343-2.211 7.24-5.563 1.071-4.001-1.304-8.113-5.305-9.184l-14.602-3.909c3.895-12.674 8.975-24.831 15.101-36.351l32.733 18.929c1.183.684 2.474 1.009 3.748 1.009 2.59 0 5.109-1.344 6.5-3.747 2.073-3.586.848-8.174-2.738-10.248l-32.728-18.925c7.007-11.156 15.041-21.599 23.971-31.201l10.602 10.613c1.465 1.466 3.385 2.2 5.306 2.2 1.918 0 3.836-.731 5.3-2.194 2.931-2.927 2.933-7.676.006-10.606l-10.613-10.624c9.572-8.919 19.981-16.946 31.099-23.948l18.911 32.707c1.39 2.404 3.909 3.748 6.5 3.748 1.274 0 2.565-.325 3.747-1.009 3.586-2.073 4.812-6.661 2.739-10.247l-18.924-32.731c11.52-6.143 23.678-11.235 36.353-15.139l3.921 14.625c.898 3.351 3.928 5.56 7.239 5.56.643 0 1.296-.083 1.947-.258 4.001-1.072 6.375-5.185 5.302-9.186l-3.923-14.635c12.599-2.895 25.635-4.627 38.984-5.104v37.866c0 4.142 3.358 7.5 7.5 7.5s7.5-3.358 7.5-7.5v-37.862c13.23.48 26.274 2.229 38.978 5.159l-3.892 14.586c-1.068 4.002 1.311 8.112 5.313 9.18.648.173 1.298.255 1.938.255 3.314 0 6.347-2.214 7.242-5.568l3.885-14.562c12.585 3.879 24.753 8.943 36.348 15.103l-18.914 32.712c-2.073 3.586-.847 8.173 2.739 10.247 1.182.684 2.473 1.009 3.747 1.009 2.59 0 5.11-1.344 6.5-3.748l18.914-32.713c11.074 6.947 21.512 14.947 31.16 23.918l-10.648 10.66c-2.927 2.93-2.925 7.679.006 10.606 1.464 1.463 3.382 2.194 5.3 2.194 1.92 0 3.841-.733 5.306-2.2l10.646-10.657c5.229 5.617 10.18 11.538 14.803 17.768l-44.826 62.347c-10.152-20.211-25.123-37.572-43.877-50.689-22.988-16.079-50.019-24.577-78.168-24.577-35.607 0-69.315 13.632-94.915 38.384-25.532 24.688-40.316 57.809-41.628 93.266-.053 1.452-.214 5.871 3.023 9.23 3.269 3.391 7.749 3.391 10.426 3.391h85.615c4.142 0 7.5-3.358 7.5-7.5s-3.358-7.5-7.5-7.5h-83.932c3.883-64.315 56.661-114.271 121.411-114.271 48.6 0 93.104 29.666 112.004 74.232l-28.788 40.039h-86.695c-4.142 0-7.5 3.358-7.5 7.5s3.358 7.5 7.5 7.5h75.917l-50.448 70.178h-14.49zm-12.535 107.007 9.26-26.07 12.488 9.01zm34.031-26.696-19.541-14.098 13.216-37.206 37.39 26.936zm125.487-151.475c-2.417 3.364-1.65 8.05 1.713 10.467 3.365 2.417 8.05 1.65 10.467-1.713l37.717-52.484c2.202 12.225 3.34 24.682 3.34 37.216 0 4.142 3.358 7.5 7.5 7.5h10.351c5.99 0 10.864 4.882 10.864 10.884v48.41c0 6.001-4.874 10.884-10.864 10.884h-21.743v-27.374c0-4.142-3.358-7.5-7.5-7.5s-7.5 3.358-7.5 7.5v27.374h-24.26v-11.58c0-4.142-3.358-7.5-7.5-7.5s-7.5 3.358-7.5 7.5v11.58h-27.778l25.592-35.615c2.417-3.364 1.65-8.05-1.714-10.467-3.364-2.416-8.05-1.65-10.467 1.714l-33.992 47.304c-.117.152-.231.307-.336.468l-30.044 41.809-14.623-10.534 149.962-208.604 14.606 10.514zm33.642-134.232 13.93-19.374c1.96-2.726 5.063-4.454 8.737-4.863 3.955-.442 8.024.675 11.451 3.143l16.388 11.81c3.442 2.482 5.802 5.999 6.643 9.903.779 3.617.129 7.104-1.836 9.83l-13.91 19.356z"/></svg>