<svg id="Capa_1" enable-background="new 0 0 512 512" height="512" viewBox="0 0 512 512" width="512" xmlns="http://www.w3.org/2000/svg"><g><path d="m496.5 386.446h-14.5v-233.826c0-20.678-16.822-37.5-37.5-37.5h-132.243l-27.405-47.843c-5.998-10.471-16.784-16.723-28.852-16.723s-22.854 6.251-28.853 16.723l-27.404 47.843h-132.243c-20.678 0-37.5 16.822-37.5 37.5v233.826h-14.5c-8.547 0-15.5 6.953-15.5 15.5v22c0 20.678 16.822 37.5 37.5 37.5h437c20.678 0 37.5-16.822 37.5-37.5v-22c0-8.547-6.953-15.5-15.5-15.5zm-256.337-311.713c6.692-12.002 24.818-12.232 31.674 0l93.784 163.728c6.853 11.727-2.105 27.446-15.836 27.322h-187.57c-13.853.12-22.732-15.524-15.836-27.323l15.46-26.991c2.059-3.594.814-8.177-2.78-10.235-3.593-2.06-8.177-.815-10.235 2.78l-15.46 26.991c-5.964 10.41-5.932 22.822.084 33.202 6.017 10.38 16.771 16.577 28.768 16.577h187.57c11.997 0 22.751-6.197 28.768-16.577 6.016-10.38 6.048-22.792.084-33.202l-40.604-70.885h98.966v162.625c0 4.142 3.357 7.5 7.5 7.5s7.5-3.358 7.5-7.5v-170.125c0-4.142-3.357-7.5-7.5-7.5h-115.059l-8.592-15h123.651c12.406 0 22.5 10.093 22.5 22.5v233.826h-15v-33.701c0-4.142-3.357-7.5-7.5-7.5s-7.5 3.358-7.5 7.5v33.701h-362v-226.326h98.967l-12.009 20.965c-2.059 3.594-.814 8.177 2.78 10.235 3.593 2.059 8.177.815 10.235-2.78zm60.42 326.713-5.98 11.96c-.938 1.875-2.822 3.04-4.919 3.04h-67.369c-2.097 0-3.981-1.165-4.919-3.04l-5.98-11.96zm-255.583-248.826c0-12.407 10.094-22.5 22.5-22.5h123.651l-8.592 15h-115.059c-4.143 0-7.5 3.358-7.5 7.5v233.826h-15zm452 271.326c0 12.407-10.094 22.5-22.5 22.5h-437c-12.406 0-22.5-10.093-22.5-22.5v-22c0-.276.225-.5.5-.5h179.146l9.334 18.668c3.495 6.99 10.521 11.332 18.335 11.332h67.369c7.814 0 14.84-4.342 18.335-11.332l9.334-18.668h179.147c.275 0 .5.224.5.5zm-241-222.215c4.143 0 7.5-3.358 7.5-7.5v-69.857c0-4.142-3.357-7.5-7.5-7.5s-7.5 3.358-7.5 7.5v69.857c0 4.143 3.357 7.5 7.5 7.5zm0 36.854c4.797 0 8.685-3.888 8.685-8.685s-3.888-8.685-8.685-8.685-8.685 3.888-8.685 8.685 3.888 8.685 8.685 8.685z"/></g></svg>